{"title":"Natalia Illarionova - Natalias Dirty Anal Fantasy - FirstAnalQue","uid":10598127,"size":497470719,"categoryP":"porn","categoryS":"movie_clips","magnet":"?xt=urn:btih:e72d1100adb9b2751f8be148070b81032c0e30fb&amp;dn=Natalia+Illarionova+-+Natalias+Dirty+Anal+Fantasy+-+FirstAnalQue&amp;tr=udp%3A%2F%2Ftracker.openbittorrent.com%3A80&amp;tr=udp%3A%2F%2Fopen.demonii.com%3A1337&amp;tr=udp%3A%2F%2Ftracker.coppersurfer.tk%3A6969&amp;tr=udp%3A%2F%2Fexodus.desync.com%3A6969","seeders":3,"leechers":1,"uploader":"athklym","files":-1,"time":1405881656,"description":" &lt;a href=&quot;http://bayimg.com/eAPnLAaff&quot; rel=&quot;nofollow&quot; target=&quot;_NEW&quot;&gt;http://bayimg.com/eAPnLAaff&lt;/a&gt;\nWe can not complain about our job - we travel around and hook up with the most seductive teen girls that are ready to sell their anal virginity and get it shot for your viewing amusement. On our last trip we met somebody who seemed to be satisfied with her job as well. When we came back from lunch back to our hotel room we saw a lovesome teen girlie who was cleaning our room. She pretended not to see us and continued her duty. Every time she leaned forward to make the bed or wipe the dust her amazing round booty peeked out from under her short housemaid dress. We just couldn't miss such a hottie and made her an offer she couldn't refuse. She agreed to come back after her shift is over and show us her beauties that she hides under her uniform. At the interview she told us that she got this job not such a long time ago and the main reason why she had chosen it were her sexual fantasies about being a sexy housemaid who gets fucked by strangers in hotel rooms. If the girl wants it - she will get it! But with only one condition - we would make her dream come true if she agrees to sell us her anal virginity. She agreed without hesitation and we got down to the shooting. By the way she works over the cock you can tell that she has been fantasizing about it a lot and nothing could stop her on her way to explosive orgasms. She was nailing her hot pussy on our actor's huge shaft like crazy and after he penetrated her innocent butthole she started to twist her hips like there was nothing she enjoyed more than a thick cock in her ripe ass!\n\nNatalia_Illarionova_Natalias_Dirty_Anal_Fantay_FirstAnalQuest.wmv\nFormat : Windows Media\nFile size : 474 MiB\nDuration : 25mn 46s\nOverall bit rate mode : Constant\nOverall bit rate : 2 573 Kbps\nMaximum Overall bit rate : 2 583 Kbps\nEncoded date : UTC 2010-04-24 14:26:06.259\nSfOriginalFPS : 299700\n\nVideo\nID : 2\nFormat : VC-1\nFormat profile : MP@HL\nCodec ID : WMV3\nCodec ID/Info : Windows Media Video 9\nCodec ID/Hint : WMV3\nDescription of the codec : Windows Media Video 9 - Professional\nDuration : 25mn 46s\nBit rate mode : Constant\nBit rate : 2 400 Kbps\nWidth : 800 pixels\nHeight : 452 pixels\nDisplay aspect ratio : 16:9\nFrame rate : 29.970 fps\nColor space : YUV\nChroma subsampling : 4:2:0\nBit depth : 8 bits\nScan type : Progressive\nCompression mode : Lossy\nBits/(Pixel*Frame) : 0.221\nStream size : 443 MiB (93%)\nLanguage : Russian\n\nAudio\nID : 1\nFormat : WMA\nFormat version : Version 2\nCodec ID : 161\nCodec ID/Info : Windows Media Audio\nDescription of the codec : Windows Media Audio 9.2 - 160 kbps, 44 kHz, stereo (A/V) 1-pass CBR\nDuration : 25mn 46s\nBit rate mode : Constant\nBit rate : 160 Kbps\nChannel(s) : 2 channels\nSampling rate : 44.1 KHz\nBit depth : 16 bits\nStream size : 29.5 MiB (6%)\nLanguage : Russian","torrent":{"xt":"urn:btih:e72d1100adb9b2751f8be148070b81032c0e30fb","amp;dn":"Natalia+Illarionova+-+Natalias+Dirty+Anal+Fantasy+-+FirstAnalQue","amp;tr":["udp%3A%2F%2Ftracker.openbittorrent.com%3A80","udp%3A%2F%2Fopen.demonii.com%3A1337","udp%3A%2F%2Ftracker.coppersurfer.tk%3A6969","udp%3A%2F%2Fexodus.desync.com%3A6969"],"infoHash":"e72d1100adb9b2751f8be148070b81032c0e30fb","infoHashBuffer":{"type":"Buffer","data":[231,45,17,0,173,185,178,117,31,139,225,72,7,11,129,3,44,14,48,251]},"announce":[],"urlList":[]}}